<?xml version="1.0" encoding="UTF-8"?>
<svg version="1.1" viewBox="0 0 3368 1132" width="1280" height="550" xmlns="http://www.w3.org/2000/svg">
<path transform="translate(555,360)" d="m0 0 10 1 24 7 28 6 33 5 25 2h67l18-1 2 4-1 165-12-2-10-1 22 11v18l-2 2-19-9-3-1 9 6 15 9 1 8-1 2-8 2-1 2 9 3v16l-3 28-5 25-6 21-8 22-9 19-12 20-11 15-7 9-10 11-4 5h-2l-1 3-8 7-13 12-19 14-15 10-21 12-16 8-23 11-8 2 7 17 1 1 20 2-1 4-11 10-2 4 3 13-1 4-4-1-10-7h-6l-12 9-2-1 2-14v-5l-7-8-5-5v-3l18-1 2-1 3-8 2-10-6-1-19-8-23-11-22-13-17-12-20-16-13-12-14-15-9-11-12-16-4-6-14-24-10-22-10-30-6-26-4-28-1-20h16l-1-2h-13l3-5-2-4v-18l-3-1v-44l5-5 6-4 12-5 12-3 1-3-9 1-12 5-12 7-3 1v-137l4-1 15 1h65l32-3 38-6 38-9zm67 91m2 3m2 3m1 2m1 1m46 0m-1 1 1 2zm-24 7-9 2-11 7-6 9-3 11 1 11 5 10 6 7 8 5 3 1h16l10-5 8-7 5-10 1-3v-12l-4-10-6-8-8-5-11-3zm55 1m-2 1m-4 2m-93 1m92 0m-90 1m88 0m-2 1m-83 1m82 0m-79 1m77 0m4 22 1 2h14v-1zm21 0 1 2 5-1v-1zm-117 1m4 0 4 1zm-97 1m-8 1m9 0-1 3h2zm2 0 1 2 3-1zm-23 0-13 5 3 1 7-2 6-2-1-2zm8 1-1 2 5-1zm19 1 1 2 2-1zm-23 1m32 1m-51 2m45 0-5 5 3 2 6 2 7 3 3-1-3-7-7-3zm-8 1m1 1m24 0v2l24 11 10 8 4-2-5-5-16-8-14-5zm-53 1m30 0m-118-7 1 2 14 2 21 10 5 6h2v2l6 5 5-2 11-7 4-4 1-6-8 4-10 3-4 3-5-2-9-6-14-7-7-2zm87 8-5 5 5-1 1-4zm-9 5 4 1zm-1 1m61 2m3 0-1 2h6l-4-2zm81 1-2 2 4-1zm76 0 4 4 12 6 2-1-14-9zm-209 1m-2 1-9 4 3 1 8-4zm131 0m-65 1m63 0m-2 1m-138 3m-1 1m104 0 4 2-1-2zm-17 1m1 1m25 0 4 3 8 4 1 3-6 1-2 3 2 3h2l2 5-9-4-5-4-9-2 2 3 7 3 8 6h7l14 6 6-2 2-3 3-2-3-1-3 2v-6l-6-8-8-5-10-4zm128 0m-228 1m76 0m154 0m-303 1-1 2h10l6 3 4 5 2 1-1 4-2 4 5-3v-2l4-2 3-2-1-2h-4l-1 1-3-4h-3v-2l-7-3zm72 0m78 0m155 0m-235 1m-72 1m-1 1m120-2-3 2-1 3-2 1v-4h-7l-10 3-7 6 4 1 12-4h12l17 2 6 3 3-1-2-3-4-2-1-2-4-1h-3l-2-1-2 1v-2l-3-2zm-165 3-2 2 1 3 2-2zm114 0m158 0m43 0 1 3v-3zm-271 1m227 0m-263 1 1 3zm7 1v5l2 1v-6zm28 0m140 0m134 0 1 2zm-232 1 2 4 2 1-2-4zm122 0m-210 1m45 0m145 0m21 0m110 0m-319 1 1 2zm27 0 2 4v-3zm164 1m129 0m-128 1m-102 1 2 2v-2zm104 0m-5 1 8 8h2v-2l-5-5zm6 0m181 0m-336 1m52 0 1 2 2-1zm281 0-2 2 5-1zm-334 1m-1 1 1 2zm57 0m101 0m174 0m-274 1v2l2-1zm102 0m161-2v2l-4 1-9 4-10 4-4 2 6 1 7-3h6l6 7h5l1-3 5-2 5-3-2-3h-2l-1-4-2-1h-6zm-322 3m-1 1m164 0-1 3 5 4 4 2 4-1-3-1-1-4-3 1v-2h-3zm70 0m-235 1 1 2zm237 0m3 1m-241 1m243 0m-244 1 1 2zm246 0 3 3 5 3 4-1-10-5zm-69 1m-178 1 1 2zm179 0m54 0v4h2l1 4 3 1 3-5-6-4zm-234 2m-1 1m298 0-11 4-6 2 2 2 4 1 10-5 5-4zm-33 2m-295 1 1 2 1-2zm62 0m27 0 1 2 5 2 3 3v-4h-2v-3zm208 0 3 2 4-1zm-298 2 1 2zm308 0m70 0-1 2h2zm-317 1 1 2zm-34 1m348 0m-3 1-3 3 1 2 3-3zm-310 1 1 2zm37 1m-50-11-3 4 2 5 5 4 2 4-6-1-4-4-5 1-8 3-6 1 1-7-4 5-4 7-2 14 3-1 14 5 6 2v22l-2 6-5-1h-7l-4-1-4 4v3h25v6l3 2h19l2-2h14l6 1 12-5-3-2-7-1-4-4h-2l-1-10-1-15 14 1 5-1 79-1 9-1-3-2-4-1-1-5h6v-1l-7-1-16 3-1 1h-16l-6 1v-2l-6-1-9-2v2l-12-2h-4l-2-5-4-1-1-2-1 1h-8l2-6-5 2-5 4h-5v-6l-2-6-1-2h-5l-8 9-3 1 1-10-1-2-4-1-3-1-2-5zm245 13m2 1 3 3h5v-2zm-132 1-9 6-3 4v3l-4 1 3 1 11 1 1-3-3-1 7-10v-2zm184 1 2 2v-2zm29 1m1 1m-8 1v2h2l2 4v-3l-2-3zm9 0 5 6 7 5-2-4-8-7zm-244 1v2l-4 2-1 4 6 2h5l2-2 5-1-2-3-9 2 2-6zm-129 2m224-4-4 4-10 1-4 4 1 4-2 1h12l5-8 3-4zm-225 6m204 0-1 3 3 1 1-3zm-205 1m195 0-5 5 1 1h11l-1-4-3-2zm-197 1m111 0v6h2v-5zm123 0-4 4 4 1h13l-2-1v-2l2-1zm17-1-3 2 5 7 1-2-1-7zm-84 3v2h7v-2zm12 0v3h10l2-3-7 2-1-2zm127 0m1 1m68 0 1 5h3v-2h-2l-1-3zm-261 2m-1 1m110 1 1 2zm136 0m-36-6-2 4-12-1 2 7-7-1-11-2-4-2-5 1-1 4-5-1-16-1-8-1-1 3h5l4 3 16 1h45v-10h2l1-3zm59 6-3 2 6 1 2-2zm-166 2m4 0m13 0m3 0 2 2h13l1-2zm152 0m-33-1v5l2 3-6-3-2-4h-2l-3 10-5-2-3-1-1 3h-7l-5 5v2l12 4 1 1h5v11l-2 4-2 1v2l-3 1v1l14 1h9l1 1 4 3 5-1 1-4h9v-4l-8-3v-17l6-2 3-2 1-10-4-2-11-1-5 2v-4zm30 2m5 0m-202 7m28 28-6 2-13 3v1h17l2-1 9 1 2-1v-4l-10-1zm14 1-2 4 7-1-1-3zm-106 2-5 4-5 10v7l6 7 4-1 4-10 3-1 1 2 5-5 5-6-2-4-6-3zm117 0-5 1v1h8l-1-2zm-48 2m138 0m-199 17 2 11 2 4 4-1 3-4-1-4-8-5zm-12 10-4 4-7 4-5 6v14l1 7v19l-3 15-1 9v13l3 8v7l4 3h2v2l4 4 4 16-6 2v2h24l15 2 5-2 3-5 4-4 1-5-7 6-5 2-9-4-2-8 1-8 3-1 1-2 1-39 1-7 1-9 5-9v-2l5-2-1-16-3-1-1 2-3-1-5-7-3-5-9-4-11-4h-2zm182 2-13 5-10 9-5 7v2h19v13l-5 1h-50l-7-4-8-6-1-5 4-9-8 1-5 2-4 9-8 17 1 5 3 2 5-1 5-3 5 1 9 15v8l4-1 8-5 6-1-4 4-10 8-1 1v5l3 4-1 35h8l1 2 4 1h11l12 3 9-1v-1l-15-4-9-1 1-6 4-8 2-5 14-2h16l1 3h-2l1 16 5 5 9 1 6-1v-2l-5-2-1-5v-8l2-14 1-5 8-10 2-4 5 1 6 5h4l-3-13-3-5-6-2 4-4 12-5h9l3 1 2 5 4 6 1 7-3 5-6 3v2l5-1 8-4 4-6-1-8-5-10v-6h2l2 5h2l1-14 1-4 6-4v-2l-8-4-1-1h-9l-19 3h-20l-8-5-3-8v-6l1-2zm-120 2m-13 7-2 2 1 3h5l2 10 2-1v-9l-5-5zm-4 2m-7 5 1 2zm-127 2v2l2 1h13l3-2zm125 0m3 18v30l2 1v-25l-1-6zm-91 26-2 4-2 2 10 1 8-3v-1h-5-4zm15 5m-21 1m98 0v13l2 2-1-15zm1 16v8h1v-8zm0 10 2 24 2 1-1-18-1-7zm124 28-3 2h9l-2-2zm-18 16-3 2 1 1h12l4-2zm-63 6-11 3v3h27l6-1-2-4h-8l-4-1zm25 3v2l5-1v-1zm-40 0-6 2v1h9l-1-3zm-17 4m-29 4-2 4 5-1-1-3zm11 1-3 2 6-1zm-8 2 4 1zm-7 1m79 10 4 2h11l-4-2zm15 2v1h6v-1z" fill="#FEFEFE"/>
<path transform="translate(2214,692)" d="m0 0h93l28 1 17 3 16 6 12 7 11 9 9 12 6 13 4 15 2 17-1 18-4 15-5 12-7 10-9 10-14 9-13 5h-3l1 3 6 3 10 9 7 11 8 21 12 35 10 29 9 27 1 2 4-10 41-123 14-41 40-120 3-7 4-1h62l4 9 16 49 10 32 10 31 20 61 10 32 10 31 15 47 9 27 1 7-4 1-59-1-3-9-13-44-7-24h-109l-21 72-2 5-112 1-2-2-21-69-11-37-5-11-6-9-8-6-10-4-5-1h-21v136l-1 2h-60l-1-4v-320zm60 47-1 2v92h37l12-4 8-4 9-8 5-8 3-8 1-6v-21l-2-9-5-10-4-5-10-6-10-3-18-2zm279 7-6 23-17 58-18 61-1 5h83l-2-11-17-63-11-40-8-30-1-3z" fill="#FEFEFE"/>
<path transform="translate(930,664)" d="m0 0 14 4 2 2v5l-7 6-2 1 6 2 2-5 5-4 8 3 10 9 7 6 1 6-2 4 1 7 1 1v8l-6 8 7 1h6l7 3 7 2v3l-5 4-3 6v12l2 4 10 3 2 3 1 11-5 8-2 7v11h-4l-12-7-5-4-1-6 3-10v-10l-5-1-8-3 3 10 2 6v13l-4 6-5 2-5-4-3-16-3-1-1 6-6 4-6 1-7-3-2-4v-9l4-6 8-5 15-8 2-3h-12v2h-5l1-4 7-6 17-7h-4l-14 7-6 2-10-1-6-2 3 5 6 3 1 1v6l-5 7-2 5-8 10h-2l-2 20-2 3-6 1-2 4 1 5 6 1 1-4h2l2-6 4-4 14 1h10l3-12 4 1 4 10 8 3-1 4h-10v12l-6 10-4 4 7 4 11 9 5 4 1 8-3 5 1 8 1 2v32l-4-2-9-12-9-16-2-5h-2l-1 7-8 18-3 1-4-8-9-12-2-12-3 2h-27l-2-1-2-4-8-5-3-3 1-4-11-1 8 19 1 6h-3l-10-9-8-10-7 7-1 2h-2l-2 5-1 1 1 7 5 7v6h10l16 4 6 3 9 6 6 3v2h-9l-13-3-2 5h-9l-5-3-2-8-6 1-3 3 6 14-3 9-5 4-3 5-4 1-2-7v-8l2-2h9l1-1-6-3-5-10-5-4-2-1h-6l3 10 8 3-1 4h-2l1 12 2 9 3 2 3-3h2l1-4 5-3 4 1 4 6 3 1-6-10v-6l4 2 5 6 2-5 1-9 3-1 3 3 2 4h5l1-7 5 1 10 9 1 4-5 5-7-1-8-4h-4l-1 7 1 10-4 3-7 2 23 2h36l23-2 33-5 10-2 1 2-9 11-15 15-12 8-2 3 4 2 13 9 16 9 6 3v3l-21 3-31 3-17 1h-50l-29-3-34-6-36-7-22-3-14-1h-38l-27 1-32 3-27 4-3 1 19 7 28 8 20 4 2 2v5l-2 1h-1l4 4v8l-8-1-24-7-25-9-16-7-10-5 1-4 4-6-3 1 1-10 1-12-2-11-1-5 13-4 27-13 14-11 11-10 12-9 14-7 21-6 9-1 7 3 10 8 7 8 5 13-9 2-20 1-26 4 23-3 33-2h12l2-3 2-7 10-9 4-5 5-1 9 4-1-3-2-1 1-7 2-3 13-3 1-7v-9l-8-4h-6l-2 1-18 1 5 5 7-1 8-3 5 1 1 1-1 7-6 7-9 3h-17l-11-3-7-8-5-4 2-5 4-6h2l2-4 8-8 6-4v-7l2-1 14 1 8 4 4 5 1 5 13 5 6 7 3 1v-2l-2-1 7-14 1-7 3-14-2-10-4-8-5-5 3 20 1 2-2 10 4 4-1 3-10-4-9-9-6-10 1-4 11 1-4-4-2-9-1-5 12-1-1-9h4l4 3h16l5-5 2-1 2 4 1 4v-9l5-8 7 1 5-4 6-1 15 2 4 1-5-10 1-4 5-6 6-3-3-1-6 2-2 6-2 4-4-2-3-3-1-3-3 2-2-4 4-6 1-7-8 5h-15l-10-9-1-1v-17l3-6 2-1 9 1 5 3h4l1-3-1-1v-11l3-15h3l5 10 15 15 9 5 4 1 3-9 2-5v-3l-18-6-8-9-5-8v-11l2-3 5 1 2 2 12-1 14 2 5 3 7-2 5-1 2 3 3-9 2-10 4-4zm-7 17 4 1zm-32 7-2 2 1 6 3 11 4 4 5-2 5-8 1-5h-2l-1-3-5-5zm-4 0-7 1-4 2-7 1 7 14h4l1-3 3-1 1-2v-8h2l2-4zm51 2-3 4 1 2 4-4v-2zm-20 2 2 2v-2zm-3 2m3 1-1 2 3 8v5l-5 5-7 9-6 10-3 9-1 11 1 12 2-2 6-11 9-12 5-18 1-4v-9l3-1-1-6-4-6v-2zm6 15-1 6h2l1 4 1-2-2-8zm13 2v2h2v-2zm26 1 4 1zm-36 7 2 6 3 2-2-6zm37 6-7 3-1 2 5-1 6-2v-2zm-32 2 1 2 3-1zm5 1m2 1 3 2 5 3 7-2-4-1-6-2zm-84 1v1l12 3 5 3 3 5 1 6-3 3-9 3 1 3 3 1h9l6-8-3-8-9-11-2-1zm99 0m-110 22m80 4-5 3-2 2-2 9-5 5-11 8-5 6v4l3 1h7l8-9 2-6 4-2 9-14v-7zm-26 9-1 4-4 2-2 8-3 5v2l4-1 4-7 3-9zm-8 6m-12 25m2 2 1 3 12 5h2l1 2 3-7-3-2zm16 11-1 9-4 7v2l1 1-7 5-2 4-2 1-3 5-1 2 4-2 2-4 8-1 8-2 4 1-2-6-5-3-1-5 3-2 2 1 19-1 13 2 1 3 3-1 4-7v-3h-2l-1-3-6-3-4 1v3l8 2 1 4h-9l-9-2-6 2h-7l-4-2-3-8zm-75 3-4 5 2 4v-4h2l1-5zm14 5 1 2zm1 2m21 1m13 0m-50 1m18 1m-17 1 2 2v-2zm18 0 1 2zm-16 2m17 0 1 2zm-16 1 1 2zm17 1 1 2zm-16 1m17 1 1 3zm36 1-1 1v6h2l1-7zm27 2m-62 1m67 0m-113 2m121 0m-119 1m121 0 5 4 7 4-1-3-8-5zm-119 1m3 1m21 5-5 17 1 3 5-5 5-7-1-4-3-4zm50 2m-18 1m17 0m-2 1m52 10 1 5 1-4zm-160 2-1 7-17 9-6 7 1 5 5 7 9-1-5-5v-5l9-3 6-4 6-7 5-3-1-3-7-4zm58 20-13 5 3 3h14l1 3 6 1 1-3-4-5-7-4zm-13 29-4 7-1 7h-4l-5-8-1 3 3 10-1 5-5 1-9-2h-5l1 4 9 4 9 2 4-5 2-9 9-1 4-4-1-6-1-7zm30 10m-73 8-6 7-3 5 1 4h11l-3-7 1-9zm-96 20-4 2 9-1v-1zm-9 2 4 1zm-4 1 4 1zm-8 2m66-1-2 1-1 15v8l-2 7 6 1 1-1 1-17v-11zm65 8-5 4-6 2v2h6l2-1-1 10-2 9v5l3 1 2-2 4-22v-8zm-78 1-5 3-3 7 1 7 4 5 7 2 3-2v-2l-7-2-2-3v-7l2-3 9-3-2-2zm30 1-5 4-3 6 1 8 4 5 2 1h8l5-3v-2l-11 1-3-2v-9l2-4 5-1 4 4 1 2-8 2 4 2h7l1-4-3-6-6-4zm68 2-5 12v3l7-1v-2l6 1-2-2-5-1 2-5 11 1 1-4-8-2zm25 4-3 4-1 4 3 3 3-6 4-1 4 1-1 8-9-2-2 1v3l-3 1-2 4v7l6 5h9l4-5 1-6-1-8 2-2v-7l-6-4zm31 3-6 2-3 8v5h5l1-2 3-2h-4l1-6h13v-3zm-126 3m78 3-1 3v11h-8l-5-5-2 1 2 5 5 4h7l5-4 2-6-1-6-2-3zm-3 1m52 4 2 6 1 2v6l-3 3-7-1-5-4 1 6 6 4 7-1 5-4 2-9-5-7zm-208 47 1 2 2-2z" fill="#FEFEFE"/>
<path transform="translate(2433,277)" d="m0 0h70l3 3 16 38 19 45 14 33 13 31 14 33 19 45 9 21v-247l2-2h51l3 1 1 10v313l-1 2h-72l-7-14-12-29-34-80-19-45-23-54-10-24-1-1v243l-1 4h-54l-1-1v-323z" fill="#FEFEFE"/>
<path transform="translate(1213,692)" d="m0 0h93l26 2 20 4 21 7 21 11 13 10 13 13 10 14 8 15 6 15 6 23 3 24 1 20v20l-3 26-5 21-6 17-8 16-7 11-8 10-10 11-16 12-12 7-16 7-21 6-17 3-9 1-96 1-7-1-1-2v-322zm61 47-1 2v229h36l16-3 16-7 14-9 10-10 9-14 6-14 4-13 3-15 1-9v-40l-3-21-6-20-8-16-7-10-7-8-11-8-14-7-14-4-11-2-12-1z" fill="#FEFEFE"/>
<path transform="translate(2792,692)" d="m0 0h87l31 1 18 3 15 5 14 8 10 9 7 9 6 13 4 20v27l-2 11-6 16-10 14-9 8-14 8-8 4 10 4 14 7 9 7 8 8 8 13 4 10 3 13 1 10v15l-3 18-6 16-9 15-7 8-10 8-14 8-14 5-17 4-6 1-114 1-2-2v-324zm58 46-1 2v88h35l10-2 14-7 9-10 5-10 2-8 1-12-2-12-7-14-8-7-12-6-12-2zm0 135-1 11v86h45l12-4 9-6 7-7 6-12 2-8v-21l-4-14-6-9-7-7-13-6-8-2-12-1z" fill="#FEFEFE"/>
<path transform="translate(2200,277)" d="m0 0h104l25 2 16 4 12 5 12 7 12 11 7 10 6 12 4 16 1 7v26l-5 18-7 14-6 8-5 5-8 7-16 8-12 4 8 3 8 5v2h2l7 10 7 16 15 43 12 36 14 40 1 7h-64l-3-6-9-30-9-29-15-48-6-11-7-7-8-4-14-3h-18v135l-1 3h-60l-1-2v-322zm61 48-1 5v88h36l9-2 12-6 10-9 5-8 3-10v-28l-5-13-6-7-10-6-11-3-12-1z" fill="#FDFDFD"/>
<path transform="translate(2817,272)" d="m0 0 21 1 20 4 16 6 16 9 14 11 8 8 8 10 9 14 10 21 6 20 5 25 2 22v36l-2 21-5 25-7 22-10 21-12 17-2 3h-2l-2 4-8 8-14 10-17 9-19 6-9 2-9 1h-23l-15-2-18-5-17-8-13-9-11-9-9-11-9-12-12-23-7-21-5-24-3-25v-35l2-21 4-22 6-21 7-16 9-17 11-14 9-10 17-13 15-8 18-6 15-3zm0 48-16 4-11 6-9 8-9 14-7 16-5 17-4 28-1 15v26l2 23 4 22 5 17 8 16 6 9 9 9 12 7 11 3h20l13-4 10-6 9-8 9-14 6-14 5-18 4-27v-56l-3-24-6-22-7-16-8-12-7-7-11-7-13-4-7-1z" fill="#FEFEFE"/>
<path transform="translate(1608,272)" d="m0 0 20 1 20 4 16 6 16 9 10 8 10 9 10 12 11 18 7 15 6 18 5 22 3 26v42l-3 25-6 25-6 17-8 17-10 15-12 14-13 11-15 9-11 5-20 6-16 2h-23l-18-3-18-6-17-9-13-10-13-13-11-15-9-16-8-21-5-19-4-27-1-9v-39l3-25 5-23 7-21 12-23 10-14 11-12 17-13 15-8 18-6 15-3zm-1 48-16 4-11 6-8 7-8 11-8 17-5 17-3 14-3 34v24l3 31 6 26 7 17 8 12 10 10 10 6 13 4h20l13-4 11-7 11-11 6-10 8-20 4-16 3-24v-55l-2-18-5-22-7-18-8-13-9-10-14-8-16-4z" fill="#FEFEFE"/>
<path transform="translate(1363,272)" d="m0 0h13l23 2 24 4 21 6 5 3-1 30-1 26-5-2-19-9-21-6-21-3h-18l-15 2-15 5-13 7-10 8-9 9-10 16-8 18-6 25-2 26 1 23 3 19 4 15 6 15 9 15 11 12 13 9 10 5 13 4 16 2 21-1 17-4 1-86-47 1-2-2v-43l1-3h105l2 3v167l-3 3-17 6-15 4-24 4-14 1h-31l-20-2-24-6-20-8-17-10-14-11-12-12-12-16-11-20-6-15-6-23-3-18-1-10v-33l3-24 6-24 8-20 11-20 11-14 16-16 16-11 14-8 22-8 25-5z" fill="#FEFEFE"/>
<path transform="translate(3088,692)" d="m0 0h63l3 3 16 50 20 62 13 41 10 31 14 44 11 33 15 47 4 12-1 3-6 1-56-1-3-7-16-56-4-13v-2l-109 1-17 57-6 19-1 1-59 1-2-1 3-11 14-40 14-43 14-41 14-43 29-87 14-41 6-18zm29 55-10 35-17 58-15 51v2h82l-1-9-30-112-7-25z" fill="#FEFEFE"/>
<path transform="translate(1533,692)" d="m0 0h64l3 2 16 51 16 49 16 50 11 35 10 31 19 58 11 35 5 15-6 1h-55l-3-1-9-29-12-42-2-6h-109l-12 42-8 26-3 8-2 2h-59l-1-3 10-29 51-153 14-41 33-99zm31 54-8 26-15 51-19 65-1 5 82 1 1-4-20-74-14-52-5-18z" fill="#FEFEFE"/>
<path transform="translate(2038,692)" d="m0 0h64l3 5 36 112 13 41 10 31 16 49 10 32 10 30 8 26-7 1h-54l-3-1-9-29-10-35-3-12-1-1-109-1-1 7-15 49-6 20-4 3h-58l1-8 32-95 52-156 10-29 13-38zm31 54-4 10-16 54-11 38-12 40-1 5 82 1 1-4-11-42-20-74-7-28z" fill="#FEFEFE"/>
<path transform="translate(1729,277)" d="m0 0h65l3 5 14 55 23 88 14 53 11 43v2h2l4-17 32-120 13-48 11-42 5-18 2-1h60l1 1-1 8-20 66-22 72-17 56-25 82-12 39-2 2h-63l-4-9-51-170-22-73-14-47-7-23z" fill="#FEFEFE"/>
<path transform="translate(1781,692)" d="m0 0h69l42 1 16 3 15 5 16 9 9 7v2h2l10 13 7 14 5 16 3 21v17l-3 22-6 18-7 13-8 10-8 8-13 8-16 7-17 4-7 1-50 1v124l-2 2h-59l-1-1v-324zm59 47-1 2v103l3 1 27-1 15-3 12-6 6-5 6-9 4-13 1-7v-21l-4-15-6-10-7-7-10-5-13-3-10-1z" fill="#FEFEFE"/>
<path transform="translate(2e3 277)" d="m0 0h168l3 1 1 46-1 2h-110l-1 86 3-1h101l2 6-1 43h-104l-1 94h114l1 1 1 46-1 2h-175l-1-2v-322z" fill="#FEFEFE"/>
<path transform="translate(313,804)" d="m0 0h2l1 3 3 24 4 17 6 16 8 15 14 19 10 16 4 10 8 3 3 2 15 1 6-9 11-10 9-4 9 1 17 5 9 4 11 6 13 10 8 7v2l4 2 8 6 16 8 17 8 9 2 1 4-3 7-1 4v12l3 11-5 3-37 12-34 13-30 13-9 3-3-2 1-5 4-6 7-7 14-6 40-13 24-8-1-1-31-4-13-1-28-1h-24l-29 1-27 4-58 11-23 3-13 1h-52l-37-3-29-4-1-3 24-13 15-10v-2l-13-9-13-12-7-7-6-8 11 1 25 4 32 3h37l25-2 56-7 27-2h53l-20-2-54-2-44 2h-9l1-3 9-3 18-5h5l-10-4-15-4-18-2-22 2-16 5-14 7-7 5h-2l1-5 8-10 10-7 10-5 5-1-7-3-15-4-14-2h-35l-11 2 2-5 7-4 8-4 15-3h17l18 3 41 13 13 3 26 3-5-5-7-6-18-11-17-9-17-6-17-5-20-4-19-2-28-1v-4l9-3 8-1h25l22 3 36 8 32 9 11 3 3 5 4 25v3l2 1 2 2-4-22-3-23-1-14v-29l3-17zm5 74 1 6 1-3zm2 7 1 8h1l-1-8zm9 7 1 2zm9 0 1 2zm-16 1 1 2zm8 1m9 0 1 3v-3zm5 8m1 2m-20 1m19 0m-18 1 1 3zm19 1m-90 2v1h5v-1zm11 0 4 1zm14 1v1h5v-1zm47 0m9 0 1 2zm12 0m-31 2 1 2zm20 0 1 6 1-4zm-19 2v3l-2 1 8 1-3-2h-2zm31 0 1 2zm-40 1m20 0v4h2zm21 1m1 2m-11 1 1 3 3-1zm12 0 1 2zm1 2v3l-2 1 6 1-2-1-1-4zm-9 1 3 3 2-2zm-14 3v1h13v-1zm19 0m9 0m-37 1v1h9v-1zm39 0-4 2h6zm3 1m4 1m51 15v1h5v-1zm6 1m4 1m8 8-1 3-5 5 1 2h2v17l2 3 7 1v-3l-4-2v-12l4-5-4-9zm-117 5-3 4-4 15-2 9v6l4-1 3-7 10-2h4l3 5 6 1-2-5-6-10-8-13zm91 1-5 3v7l8 4 7 1-2 5h-7l-4-3h-2l1 4 4 3h8l6-4v-6l-3-3-10-3-1-4h7l6 1-1-3-4-2zm-28 1-5 3-3 9 2 7 5 4h10l5-4 2-4v-7l-4-6-3-2zm74 1-6 5-1 2v8l3 5 3 3 7 1 6-3 4-5v-9l-4-5-3-2zm-14 1m-81 0-1 2-2-1h-8l-5 3-1 3v8l3 6 3 2h7l3-2h3v6l-6 2-10-1 2 4 1 1h10l6-3 1-1v-15l-2-13zm-151 5-3 8-1 7h5l1-4 1-6 12-1 1-3-2-1zm50 0v30l-9-2-3-5v-6l2-3 8-3-4-2-8 2-3 5v10l5 6 7 1 11-2-1-27-2-4zm18 7-5 3-2 4v7l3 7 6 3 9-3 1-2-2-2-4 2-7-1v-7l-1-3 1-3 7-1 3 1 2 6h2l-1-7-5-4zm-61 3m1 1 1 5 1 2v7l-4 3-6-2-3-2-2-1 1 5 6 4 7-1 6-5v-9l-5-6zm40 0m-41 3m61 4m7-1-4 2 4 1 2-3zm5 7 1 2z" fill="#FEFEFE"/>
<path transform="translate(2702,692)" d="m0 0h59l2 6v318l-1 2h-60l-1-3v-322z" fill="#fff"/>
<path transform="translate(556,285)" d="m0 0 8 1 22 7 31 8 26 5 23 3 25 2h39l28-2 35-5 28-6 8-2h5l1 154v163l-3 33-5 29-7 27-10 28-8 18-10 18-7 11-8 12-13 17-9 10-7 8-26 26h-2v2l-11 9-12 10-18 13-19 12-23 13-22 11-35 15-14 7-6 6-5-2-16-8-35-15-25-12-21-11-22-14-13-10-13-11-15-14-5-4v-2l-4-2v-2h-2v-2h-2l-7-8-14-15-13-17-13-18-13-23-13-27-9-24-8-29-5-25-3-24-2-22v-311l9 1 39 8 29 4 26 2h40l36-3 39-7 35-9zm2 8-34 10-36 8-23 4-28 3-47 1-32-2-23-3-36-7-9-1v297l2 29 4 27 6 27 8 25 10 25 12 24 13 21 8 11 11 14 11 13 14 15 12 12 8 7 7 7 11 9 18 13 16 10 18 10 27 13 26 11 20 9 4 2 5-1 16-8 30-13 21-10 22-12 23-15 11-8 16-12 14-12 4-3v-2l4-2 28-28 9-11 12-15 3-5 11-17 12-22 11-27 8-26 3-12 5-29 3-30 1-72v-72l-1-37v-131l-25 5-31 5-28 3-24 1-41-1-29-3-28-5-25-6-31-9z" fill="#FBFBFB"/>
<path transform="translate(193,245)" d="m0 0 4 1 5 3 1 2 1 33v16l2 7-1 8-2 18-3 12-4 4-8 3-8-1-2 26-1 16-2 6 3 2 3-9 7-10 9-10 10-7 13-5h6v3l-9 6-3 3h-2v2h-2v2h-2l-2 4-8 11-8 15-5 14-5 17-1 14 2-1 5-13 8-11 9-6 7-2h7l10 3 10 6 7 8-1 2-16-8-9-1-8 3-6 5-8 14-5 15-6 27-3 6v5l4-2 6-10 9-11 9-7 6-2h8l6 2-2 3-11 5-6 5-7 10-9 19v4l9-7 10-3 13 1 6 3 5 6 3 8 6 38v6l-3-1-5-12-6-20-5-10-6-5-8-1-9 6-6 10-6 16-2 1-2-14-2-7-1-9-1 4 4 14 1 6v8l-2 5-1 1h-9l-5 2h-6l-1-25-3-12-5-11-7-20-9-19-9-12-6-5-9-1-5 5-4 14-5 24-3 8h-3l2-18 1-26 4-14 4-6 5-4h9l10 5 10 9 7 7 6 10 3 13-3-1-2-2 5 14 3 16 2-9-1-27-2-19 1-12-2-3 1-13h2v-29l1-2h3v-4l1-23 1-15 1-5-12-3-4-5-2-1 1-8 8-24 5-14 10-27 8-17 2-3h2l2-4zm-13 161m-2 10m0 6v5h1v-5zm0 6v7h1v-7zm1 24-8 1v1l8 1v14l-2 16 1 9 2-2 3-21v-11l-2-8zm-33 17m1 1m1 2 1 2zm2 3 1 3zm1 3v2l2-1zm2 2 1 2zm28 23v2l-3 1 3 1 1 3 1 14h1v-14h2l1 2 1-6h-3l-3-3zm7 2m-3 7 1 4zm-22 7 1 4z" fill="#FEFEFE"/>
<path transform="translate(969,511)" d="m0 0 10 3 9 4v3l-9 2-10 5-3 1-2 5-4 6v2l5 2 6 7v3l-10-2-8-1 4 13 2 18v5h17l2-4 11-12 10-4h10l6 3 3 12-1 5-9-3h-2l13 7 5 4 4 8v14l-3 10 4 8v6l-1 2h-3l-3-6-11-2-9-2-5-5-6-11-1-4v-5l-1 8-5 4-3 3h-7l-5-4-2-10v-11l-9-2-3 11-12 35-1 5 1 7v2l14-2h5l-1 4-10 10-9-1-9-3-2-1v-2l-9-1-3 12-4 1-4-4-3-6 1 8-5 5-6 4h-5l-1-3 1-4-1-4 6-4-1-5-6 2-2 2h-5l-4-4v-16l5-5v-2l-1-5 5 1 11 4 4 2 1-5 3-2h10l4 5 2 1-1 6-4 5-4 4 9-4 6-9 4 2 3-1 5-11 6-25 4-20v-19l-2-7-4-5v-2l-4-1-4 7-3 21v12l-3 29-1 12-4 1-5-4 1-9-2-8-8 1-5 2-5-1-5-2-15-1-5-4v-2l-5-2-5-3 1-4 6-5 3-2-7-13-2-5 4-4 5-1h12l-3-4-3-7 1-4 8-3h10l10 4 9 7v2l6 1 7-14v-5l-3 1-5-2v-2l17-2 19-10 5-3h2l-2-7-1-6zm-65 54v1h5v-1zm-7 8v1l9 1-1-2zm9 2m1 1 2 2v-2zm19 0-3 4 4-2 1-2zm-17 2m3 3v2h5v-2zm-7 2v2h2v-2zm2 2 2 2v-2zm2 3m3 1v3zm74 9m1 2m1 1 1 3zm27 14 1 3zm2 5m1 2m-114 20v8h3l-1-6z" fill="#FDFDFD"/>
<path transform="translate(901,374)" d="m0 0 6 1 9 5 1 5 7-5 6 1 5 3 5 8 1 5v10h2l3 9 2-1 5 2 1 2h2v-3h-2l-1-2-6-2-2-4v-9l3-7 6-4h11l4-5 9-1 6 4 6 10 2 3 6 3 4 6 2 5v11l-5 6-5 1-5-2-2 4-5 7-4 2-6-1-10-8h-3l-5-9-2 10-6 8-4 13v29l-2 3-4-1v-41l7-21-1-1-8 2-3 7-8 6-4 9-5-2-6-8-5-13v-2l-8 1-2-2v-8l5-12-5-2-7-7-6-10v-4l6 1 9 5 5 3v-12zm24 19v6h1v-6zm-14 7-1 4h2v-3l2-1zm3 1-1 3 8 6 9 3-2-4-9-4-3-1-1-3zm59 8 1 5 2 2h4l-2-4zm-41 3-1 3 7 2-5-5zm-3 4m-1 1m16 2 1 2z" fill="#FEFEFE"/>
<path transform="translate(554,143)" d="m0 0h12l12 3 12 7 7 9 5 11 1 5v17l-4 11-9 10-7 6-11 5-4 1h-15l-13-4-10-7-8-9-4-8-2-5-1-17h2l1-7 4-8 7-9 9-6 11-4zm4 22-18 7v3h7l6-5 2-1 1 6-3 6-11 8 1 2 9 2 8 5 7 3 7-1 3-1 1-8-3-10-6-11-6-5zm-17 30-2 1 1 4 6 4 10 3h18l4-3-1-2h-15l-11-4-6-3z" fill="#FDFDFD"/>
<path transform="translate(937,259)" d="m0 0 7 1 2 2 4 11 2 2-1 5-2 4h2l5-6h3l1 4v9l-5 8v2h5l1 2-7 7v5l5 10 9 6 4 4 2 9-1 3 5 1 3 3-1 2 12 2v-3l-6-1-5-5-4-5-6-9-3-5v-2l-4-1-3-4 1-2 3-1h11l3 1 2-3h2l2-4 4-2v9h9l10 2 1 2-2 3h-2l-2 5-3 3 1 10 7 2 4 9 1 6-3 3-9-5-3 7-3 3-4-1-1-5-4-1h-13l-7 9 1 9-1 1h-8l-4-4-3-8v-7l1-2h2l1-6-8-10-11 1-5 4-3-1v-4l-9 1-9-6-4-5-5-3 1-6 3-5 6-1 7 2 5-3h5l2 3 3-1 6 5 1 8 10 4 1-4v-7l-3-9-9-6-2-5-6-2-6-4v-3h2l1-2 1-1-4-1-5-4-1-4v-7l3-9 3-6 4-2zm10 26-8 8 4 1 5-5zm2 1m-1 2m10 41-1 3 4 4h2l-1-4-3-1zm-30 5v6l3 3 1-2-3-7zm35 2 1 2zm1 3m1 1-4 4-1 5v9h3l5-4-1-13zm-33 3m62 7m1 1m1 1 2 4 1-3z" fill="#FDFDFD"/>
<path transform="translate(125,539)" d="m0 0 9 1 8 4 10 9 7 9 5 8 3 1 1-3 4-1h15l1 35 2 14 3 13v4l-11 1-3 2 3 1 9-2 3 7 6 29 5 19 1 6-3 2-5 1h-11l-4-22-1-15-3-10-3-9v-7h-2l-2-7v-20l-3-15-4-15-5-5 1 4 2 1 5 15 3 18h-2l-8-16-8-17-9-14-4-5-9-6h-9l-6 4-7 11-6 12-6 18h-2v-10l4-20 6-14 7-9 6-5zm25 22m1 1m2 3m2 1 2 2v-2zm2 2m1 1m1 1 1 2zm6 3 1 5 1-2z" fill="#FDFDFD"/>
<path transform="translate(2734,610)" d="m0 0h54l1 2-11 16-36 51h-39l5-13 14-31 10-23z" fill="#FEFEFE"/>
<path transform="translate(935,491)" d="m0 0 8 2 1 1 12 1 5 3 3 5 3 13 1 4-6 7-8 6-10 4h-13l-4-2-8-2 2 5-8 3-6 1-1-4 3-10 4-3 1 1v-7l4-12 2-10 4-3zm6 22m-1 1m6 7v2l3-1zm-31 7 1 2zm15 0v2l4-1z" fill="#FDFDFD"/>
<path transform="translate(127,632)" d="m0 0h10l8 2 14 7 16 12 5 8-1 4v1l3 5 2 15 2 9v4h-2l-7-10-7-11-9-12-11-13-10-7-8-2-7 3-6 8-6 14-5 22-4 19-2 4h-2v-33l2-15 5-16 6-9 8-7zm32 17m3 2m1 1m1 1 2 3 2-1zm5 4 2 2v-2zm2 2m1 1 2 3 2-1z" fill="#FEFEFE"/>
<path transform="translate(546,965)" d="m0 0 9 2 7 3h8l5-2 10 1-1 11-3 6-1 16-5 9-6 4h-13l-10-5-5-8-2-5v-16l4-11z" fill="#FEFEFE"/>
<path transform="translate(956,430)" d="m0 0 5 5 5 4 4 4-1 14-1 6h11l7-1v-2l8-7 9-1h9l5 4 5 9-1 3h-3l7 8 4 17 1 3v8l-4 8-3 3h-2l-2-9-2-8-6-9-5-5-11-10-8-6-3-1-7 1h-14l-3 9-5 8-5 4-4-1 2-5 7-10 4-13-1-14-3-15zm50 30 3 3 5 3 2-1-5-4z" fill="#FDFDFD"/>
<path transform="translate(142,725)" d="m0 0h9l13 3 16 8 18 12 6 7v5 2l8 12v3l-4-2-10-9-14-12-15-10-12-5-4-1h-7l-7 3-4 8-3 19-3 22-4 17-3-1v-52l3-15 4-7 6-5z" fill="#fff"/>
<path transform="translate(223,603)" d="m0 0 10 1 8 4 6 7 4 8 4 15 6 33 4 13 2 7-4-2-4-5-6-17-7-24-5-12-7-9-3-2h-10l-5 4-5 8-5 16-3 20h-2l-4-18-2-15h-2l2-5 6-12 8-9 7-4z" fill="#FDFDFD"/>
<path transform="translate(138,766)" d="m0 0 14 2 25 7 23 8 12 5 4 5 1 3-5-2-9-3 9 4 8 5 9 13v3l-5-1-29-15-27-11-27-8-5-2v-7z" fill="#fff"/>
<path transform="translate(664,818)" d="m0 0h3l5 15v2l20 1v4l-10 10-1 2 1 17-4 2-5-5-6-4-5 2-9 5-2 2h-3v-7l2-7-1-7-13-11v-3l21-2z" fill="#FCFCFC"/>
<path transform="translate(453,817)" d="m0 0 2 2 4 11 2 4 19 2-1 4-10 10-1 6 4 13v2l-6-1-11-7-4-1-9 6-5 5h-1l1-15 1-6-11-11-3-2v-3h10l11-2 4-10 3-6z" fill="#FCFCFC"/>
<path transform="translate(322,594)" d="m0 0 4 1 6 13v2l16 1 5 1-1 3-8 5-4 4h-2l3 16 2 7-5-2-12-7-7 1-13 8-2-1 4-14v-7l-1-3-4-2-7-5v-3l10-2h10l1-5 4-10z" fill="#FEFEFE"/>
<path transform="translate(614,313)" d="m0 0 3 1 4 13 1 2 3 1 17 2v3l-11 9-1 5 3 14v4l-5-2-13-8-11 6-6 4h-2l1-7 2-9v-6l-9-8-4-3v-2l2-1 19-1 3-9z" fill="#FDFDFD"/>
<path transform="translate(794,323)" d="m0 0h4l5 13 7 2 11 1 4 2-5 5-8 6-1 3 4 16-1 4-14-8-5-2-13 8-5 2 2-10 2-11-4-5-9-6v-3l13-2 7-2 5-12z" fill="#FDFDFD"/>
<path transform="translate(704,325)" d="m0 0 4 1 4 15 5 1h11l6 1-2 4-8 7-3 4v8l2 11-7-2-8-6-7 1-11 8-2 1v-9l2-7v-6l-14-12 1-3 20-1z" fill="#fff"/>
<path transform="translate(501,314)" d="m0 0 4 1 7 14 16 2 4 2v2l-10 6-4 3v7l4 16-4-1-14-9-20 10 4-17-1-6-9-7-3-3 1-2 19-3z" fill="#FCFCFC"/>
<path transform="translate(795,457)" d="m0 0 3 1 4 13v2l22 3v3l-8 6-5 5 4 21-5-2-13-8-5 2-13 8h-2l4-21v-2h-2v-2l-4-2-7-6 1-2 16-2h3l2-6 4-9z" fill="#FDFDFD"/>
<path transform="translate(320,322)" d="m0 0 4 1 7 14 19 3v3l-9 6-5 4 2 11 2 5v6l-8-4-9-6-5 2-11 7-3 1 1-11 1-4v-8l-9-7-3-3 3-3 17-1 2-6z" fill="#FDFDFD"/>
<path transform="translate(320,457)" d="m0 0 4 1 6 14 3 2 18 2 1 2-9 5-6 5h-2l5 18v5l-5-2-10-7-4-1-11 7-4 3h-2l1-11 1-4v-8l-9-7-3-3 3-3 14-1 4-4z" fill="#FDFDFD"/>
<path transform="translate(793,593)" d="m0 0 3 1 6 15 7 1 12 2 3 2-9 6-5 4-1 3 3 16-1 4-16-10-5 2-12 7h-1v-7l2-8v-7l-11-8-1-4 1-1 14-1 4-1 6-15z" fill="#FEFEFE"/>
<path transform="translate(413,324)" d="m0 0 3 2 5 15 8 1h9l2 1-1 4-8 7-3 4 2 12 2 6-2 1-7-3-8-5h-5l-9 7-5 3v-7l2-9-1-7-13-11v-2l3-1 19-1 6-16z" fill="#fff"/>
<path transform="translate(750,728)" d="m0 0 4 2 6 13 4 1 15 1-1 4-10 9-1 6 3 13v3l-6-1-10-7-7 1-9 6-4 1-1-3 5-14-1-4-13-10-1-3 1-1 18-1 3-3 3-8z" fill="#fff"/>
<path transform="translate(364,728)" d="m0 0 4 1 4 10 2 4 10 2h7l3 3-8 7-6 5 3 15 1 4-3 1-7-4-6-4-6 1-9 6-5 2 1-7 2-10v-5l-11-10-1-4 17-1 3-3 3-5z" fill="#FEFEFE"/>
<path transform="translate(594,151)" d="m0 0 27 1 30 2 1 3-11 9-11 10-11 9-8 8-3 1-2-18-5-14-7-9z" fill="#FCFCFC"/>
<path transform="translate(515,151)" d="m0 0h10l-1 5-6 10-4 12-1 14h-3l-12-11-11-9-10-9-9-7 1-2z" fill="#FBFBFB"/>
<path transform="translate(268,739)" d="m0 0 9 2 6 4 5 4 8 11v4l-4-2-10-6-4-2h-8l-3 4-2 7v10l4 26 4 19v3l-4-2-8-17-4-8-4-6v-28l3-12 6-8z" fill="#FCFCFC"/>
<path transform="translate(601,207)" d="m0 0 3 1 12 48v5l-5-1-11-8-26-16-5-3 1-3 10-4 10-6 8-8z" fill="#FEFEFE"/>
<path transform="translate(516,208)" d="m0 0 3 1 6 8 8 6 10 5 11 3-5 5-16 10-14 10-11 7h-2l2-12 6-29z" fill="#fff"/>
<path transform="translate(200,702)" d="m0 0 7 1 4 13 6 18 9 19-2 4-7 2-9-1-3-2-5-17-9-24-1-4v-7z" fill="#fff"/>
<path transform="translate(255,812)" d="m0 0 5 1 8 15 8 13 5 8 6 4v2l-10 4-7 1-6-2-5-5-10-18-8-13 1-5 3-3z" fill="#FEFEFE"/>
<path transform="translate(223,759)" d="m0 0 5 1 5 8 8 20 4 7 11 8 1 3-13 6-7 1-5-5-10-18-8-16-2-8 1-2 9-4z" fill="#FEFEFD"/>
<path transform="translate(560,96)" d="m0 0 4 1 5 11 13 31 1 4-10-2-6-1h-15l-11 1 5-12 11-25z" fill="#FEFEFE"/>
<path transform="translate(173,817)" d="m0 0h10l22 4 24 8 13 6 9 6 5 11-1 2-27-11-35-15-17-7-3-2z" fill="#FEFEFE"/>
<path transform="translate(883,450)" d="m0 0 7 1 11 7 10 8 8 10 10 9v3l-12 2-6 7-11-11v-2h-2l-7-15-5-12-3-3zm18 21m4 0m-5 1m4 0m-5 1m2 0m2 0m-1 1m3 5 1 3 4 3 3-1-4-4z" fill="#fff"/>
<path transform="translate(233,682)" d="m0 0h2l-2 16v24l4 35 2 9v5l-3-1-9-17-6-16-1-1v-12l8-31z" fill="#FDFDFD"/>
<path transform="translate(417,597)" d="m0 0 3 1 2 5 6 4 1 10-1 12-5 10-3-1v-5h-3v2l-7 1-2-2-1-5v-20l2-7z" fill="#F6F6F6"/>
<path transform="translate(284,808)" d="m0 0 3 1 5 21 7 19 7 14 1 7-4-1-4-2-4 1-15-4-3-2 6-3 6-1 1-2 2 3 3 2 3 3-6-9-4-5-3-12-1-11z" fill="#FEFEFE"/>
<path transform="translate(122,394)" d="m0 0 4 1 7 7 12 8 10 10 5 9v9l-2-3-1-4-2-1 4 12-2 7h-2l-5-14-8-11-12-13-7-12zm31 34 2 2v-2z" fill="#FDFDFD"/>
<path transform="translate(131,356)" d="m0 0 5 1 11 7 7 7 7 11 3 8-2 13v18l-3-1-3-17-3-11-6-14-7-10-9-10z" fill="#FEFEFE"/>
<path transform="translate(709,996)" d="m0 0h2l-2 6-4 2-8 1h-45l-9-2v-3l13-2h50l3 1z" fill="#FDFDFD"/>
<path transform="translate(417,998)" d="m0 0h28l27 1 10 1v3l-7 1-8 1h-39l-13-2-2-4z" fill="#FDFDFD"/>
<path transform="translate(710,615)" d="m0 0 6 1 4 4 1 8-2 6-6 2-8-1-1-9v-7l2-3z" fill="#FCFCFC"/>
<path transform="translate(821,779)" d="m0 0 8 8 9 4 2 1-1 3-6 2-4 5-4 1-5-8v-15z" fill="#fff"/>
<path transform="translate(981,657)" d="m0 0 2 1-2 4-4 4-1 22-4-2-4-5v-2h-2l-1-5 7-13z" fill="#FCFCFC"/>
<path transform="translate(384,963)" d="m0 0 6 1 3 3 1 8-4 5h-6l-5-5v-7z" fill="#FBFBFB"/>
<path transform="translate(457,964)" d="m0 0 7 1 3 3 1 7-3 5-2 1h-6l-3-3-1-8 3-5z" fill="#fff"/>
<path transform="translate(355,964)" d="m0 0 3 1 3 3 1 4v7l-5 3h-5l-4-6v-6l5-5z" fill="#fff"/>
<path transform="translate(824,983)" d="m0 0 9 1 1 8-4 4h-5l-3-3 1-8z" fill="#fff"/>
<path transform="translate(655,703)" d="m0 0 5 2 4 10 2 3-1 4-4-1-3-3-6-10 1-4z" fill="#FAFAFA"/>
<path transform="translate(320,965)" d="m0 0h3l5 11v3h-11l1-9z" fill="#fff"/>
<path transform="translate(656,761)" d="m0 0 3 1 1 18-3 3-3-10-1-4v-7z" fill="#FDFDFD"/>
<path transform="translate(489,781)" d="m0 0 3 1v9l-4 1-3-1v-5z" fill="#FCFCFC"/>
<path transform="translate(373,940)" d="m0 0h16v1h-16z" fill="#fff"/>
<path transform="translate(435,967)" d="m0 0h1v9h-1l-1-8z" fill="#fff"/>
<path transform="translate(311,890)" d="m0 0h2v6l-2-3z" fill="#fff"/>
<path transform="translate(170,614)" d="m0 0h2v6l-2-4z"/>
<path transform="translate(491,583)" d="m0 0 1 4-2-1-1-2z" fill="#484848"/>
<path transform="translate(404,564)" d="m0 0h2v3h-2z" fill="#fff"/>
<path transform="translate(179,478)" d="m0 0h1v6h-1z" fill="#fff"/>
<path transform="translate(764,931)" d="m0 0 1 2-2 2z" fill="#fff"/>
<path transform="translate(511,538)" d="m0 0h3v2l-3-1z" fill="#fff"/>
<path transform="translate(536,990)" d="m0 0 1 4z" fill="#fff"/>
<path transform="translate(348,979)" d="m0 0v3z" fill="#fff"/>
<path transform="translate(347,967)" d="m0 0 1 3-2-1z" fill="#BFBFBF"/>
<path transform="translate(453,965)" d="m0 0v3z" fill="#fff"/>
<path transform="translate(591,741)" d="m0 0 2 2-2 1z" fill="#fff"/>
<path transform="translate(643,597)" d="m0 0h2v2h-2z" fill="#7F7F7F"/>
<path transform="translate(523,535)" d="m0 0h2v2h-2z" fill="#fff"/>
<path transform="translate(180,474)" d="m0 0 1 4z" fill="#fff"/>
<path transform="translate(943,400)" d="m0 0 1 4z" fill="#3F3F3F"/>
<path transform="translate(536,985)" d="m0 0" fill="#fff"/>
<path transform="translate(408,979)" d="m0 0 2 2h-2z" fill="#fff"/>
<path transform="translate(823,973)" d="m0 0" fill="#fff"/>
<path transform="translate(315,973)" d="m0 0" fill="#fff"/>
<path transform="translate(843,924)" d="m0 0" fill="#fff"/>
<path transform="translate(314,902)" d="m0 0"/>
<path transform="translate(365,596)" d="m0 0 3 1z" fill="#fff"/>
<path transform="translate(292,477)" d="m0 0 2 2h-2z" fill="#fff"/>
<path transform="translate(292,341)" d="m0 0 2 2h-2z" fill="#fff"/>
<path transform="translate(514,190)" d="m0 0" fill="#aaa"/>
<path transform="translate(514,180)" d="m0 0" fill="#fff"/>
<path transform="translate(536,995)" d="m0 0" fill="#fff"/>
<path transform="translate(274,989)" d="m0 0"/>
<path transform="translate(418,980)" d="m0 0 2 1z" fill="#fff"/>
<path transform="translate(539,974)" d="m0 0" fill="#fff"/>
<path transform="translate(799,969)" d="m0 0" fill="#fff"/>
<path transform="translate(727,969)" d="m0 0" fill="#fff"/>
<path transform="translate(451,969)" d="m0 0" fill="#fff"/>
<path transform="translate(729,965)" d="m0 0" fill="#fff"/>
<path transform="translate(740,965)" d="m0 0 2 1z" fill="#fff"/>
<path transform="translate(407,963)" d="m0 0" fill="#fff"/>
<path transform="translate(460,962)" d="m0 0 2 1z" fill="#fff"/>
<path transform="translate(414,960)" d="m0 0 2 1z" fill="#fff"/>
<path transform="translate(315,906)" d="m0 0" fill="#7F7F7F"/>
<path transform="translate(748,893)" d="m0 0 2 1z" fill="#fff"/>
<path transform="translate(935,822)" d="m0 0" fill="#fff"/>
<path transform="translate(929,812)" d="m0 0 2 1z" fill="#fff"/>
<path transform="translate(927,773)" d="m0 0" fill="#fff"/>
<path transform="translate(652,770)" d="m0 0" fill="#fff"/>
<path transform="translate(427,732)" d="m0 0 2 1z" fill="#fff"/>
<path transform="translate(196,651)" d="m0 0" fill="#fff"/>
<path transform="translate(734,635)" d="m0 0" fill="#fff"/>
<path transform="translate(678,600)" d="m0 0 2 1z" fill="#fff"/>
<path transform="translate(499,541)" d="m0 0 2 1z" fill="#7F7F7F"/>
<path transform="translate(507,538)" d="m0 0" fill="#fff"/>
<path transform="translate(525,538)" d="m0 0 2 1z" fill="#fff"/>
<path transform="translate(525,516)" d="m0 0 2 1z"/>
<path transform="translate(363,513)" d="m0 0 2 1z" fill="#fff"/>
<path transform="translate(933,414)" d="m0 0 2 1z" fill="#fff"/>
<path transform="translate(975,339)" d="m0 0" fill="#fff"/>
<path transform="translate(514,187)" d="m0 0" fill="#BEC4BD"/>
<path transform="translate(604,180)" d="m0 0"/>
<path transform="translate(594,156)" d="m0 0" fill="#fff"/>
<path transform="translate(219,995)" d="m0 0" fill="#fff"/>
<path transform="translate(288,993)" d="m0 0" fill="#fff"/>
<path transform="translate(806,991)" d="m0 0" fill="#fff"/>
<path transform="translate(223,991)" d="m0 0" fill="#fff"/>
<path transform="translate(794,987)" d="m0 0" fill="#fff"/>
<path transform="translate(821,985)" d="m0 0" fill="#fff"/>
<path transform="translate(733,983)" d="m0 0" fill="#fff"/>
<path transform="translate(349,982)" d="m0 0" fill="#fff"/>
<path transform="translate(220,982)" d="m0 0" fill="#fff"/>
<path transform="translate(221,981)" d="m0 0" fill="#fff"/>
<path transform="translate(834,980)" d="m0 0" fill="#fff"/>
<path transform="translate(325,980)" d="m0 0" fill="#fff"/>
<path transform="translate(220,980)" d="m0 0" fill="#fff"/>
<path transform="translate(467,979)" d="m0 0" fill="#fff"/>
<path transform="translate(452,979)" d="m0 0" fill="#fff"/>
<path transform="translate(407,978)" d="m0 0" fill="#fff"/>
<path transform="translate(288,978)" d="m0 0" fill="#fff"/>
<path transform="translate(452,977)" d="m0 0" fill="#fff"/>
<path transform="translate(451,976)" d="m0 0" fill="#fff"/>
<path transform="translate(395,975)" d="m0 0" fill="#fff"/>
<path transform="translate(586,973)" d="m0 0" fill="#fff"/>
<path transform="translate(210,973)" d="m0 0"/>
<path transform="translate(824,972)" d="m0 0" fill="#fff"/>
<path transform="translate(798,971)" d="m0 0" fill="#fff"/>
<path transform="translate(413,971)" d="m0 0" fill="#fff"/>
<path transform="translate(317,967)" d="m0 0"/>
<path transform="translate(765,939)" d="m0 0" fill="#fff"/>
<path transform="translate(736,939)" d="m0 0"/>
<path transform="translate(799,932)" d="m0 0"/>
<path transform="translate(313,901)" d="m0 0"/>
<path transform="translate(313,898)" d="m0 0" fill="#fff"/>
<path transform="translate(750,891)" d="m0 0" fill="#fff"/>
<path transform="translate(764,887)" d="m0 0" fill="#fff"/>
<path transform="translate(811,856)" d="m0 0" fill="#fff"/>
<path transform="translate(929,822)" d="m0 0" fill="#fff"/>
<path transform="translate(895,821)" d="m0 0" fill="#fff"/>
<path transform="translate(819,816)" d="m0 0" fill="#fff"/>
<path transform="translate(932,813)" d="m0 0" fill="#fff"/>
<path transform="translate(963,801)" d="m0 0" fill="#fff"/>
<path transform="translate(514,794)" d="m0 0" fill="#fff"/>
<path transform="translate(515,793)" d="m0 0" fill="#fff"/>
<path transform="translate(516,792)" d="m0 0" fill="#fff"/>
<path transform="translate(517,791)" d="m0 0" fill="#fff"/>
<path transform="translate(213,774)" d="m0 0" fill="#fff"/>
<path transform="translate(212,772)" d="m0 0" fill="#fff"/>
<path transform="translate(233,767)" d="m0 0" fill="#fff"/>
<path transform="translate(876,740)" d="m0 0" fill="#fff"/>
<path transform="translate(875,739)" d="m0 0" fill="#fff"/>
<path transform="translate(430,732)" d="m0 0" fill="#fff"/>
<path transform="translate(923,707)" d="m0 0" fill="#fff"/>
<path transform="translate(200,700)" d="m0 0" fill="#fff"/>
<path transform="translate(581,681)" d="m0 0" fill="#fff"/>
<path transform="translate(499,674)" d="m0 0" fill="#fff"/>
<path transform="translate(661,667)" d="m0 0" fill="#fff"/>
<path transform="translate(493,660)" d="m0 0" fill="#fff"/>
<path transform="translate(481,660)" d="m0 0" fill="#fff"/>
<path transform="translate(492,657)" d="m0 0" fill="#fff"/>
<path transform="translate(711,636)" d="m0 0" fill="#fff"/>
<path transform="translate(706,636)" d="m0 0" fill="#fff"/>
<path transform="translate(582,634)" d="m0 0"/>
<path transform="translate(191,634)" d="m0 0" fill="#fff"/>
<path transform="translate(437,627)" d="m0 0" fill="#fff"/>
<path transform="translate(706,598)" d="m0 0"/>
<path transform="translate(356,597)" d="m0 0" fill="#fff"/>
<path transform="translate(612,596)" d="m0 0" fill="#fff"/>
<path transform="translate(670,595)" d="m0 0" fill="#fff"/>
<path transform="translate(679,593)" d="m0 0" fill="#fff"/>
<path transform="translate(578,590)" d="m0 0"/>
<path transform="translate(592,588)" d="m0 0" fill="#fff"/>
<path transform="translate(512,587)" d="m0 0" fill="#fff"/>
<path transform="translate(1013,586)" d="m0 0" fill="#fff"/>
<path transform="translate(447,584)" d="m0 0" fill="#fff"/>
<path transform="translate(448,583)" d="m0 0" fill="#fff"/>
<path transform="translate(492,582)" d="m0 0" fill="#fff"/>
<path transform="translate(165,582)" d="m0 0" fill="#fff"/>
<path transform="translate(164,580)" d="m0 0" fill="#fff"/>
<path transform="translate(163,579)" d="m0 0" fill="#fff"/>
<path transform="translate(161,575)" d="m0 0" fill="#fff"/>
<path transform="translate(416,574)" d="m0 0" fill="#fff"/>
<path transform="translate(160,574)" d="m0 0" fill="#fff"/>
<path transform="translate(409,571)" d="m0 0" fill="#fff"/>
<path transform="translate(744,570)" d="m0 0" fill="#fff"/>
<path transform="translate(174,565)" d="m0 0" fill="#fff"/>
<path transform="translate(564,557)" d="m0 0" fill="#fff"/>
<path transform="translate(557,555)" d="m0 0" fill="#fff"/>
<path transform="translate(545,545)" d="m0 0" fill="#fff"/>
<path transform="translate(589,534)" d="m0 0" fill="#fff"/>
<path transform="translate(564,525)" d="m0 0" fill="#fff"/>
<path transform="translate(967,523)" d="m0 0" fill="#fff"/>
<path transform="translate(968,522)" d="m0 0" fill="#fff"/>
<path transform="translate(968,520)" d="m0 0" fill="#fff"/>
<path transform="translate(523,516)" d="m0 0"/>
<path transform="translate(522,515)" d="m0 0"/>
<path transform="translate(366,512)" d="m0 0" fill="#fff"/>
<path transform="translate(184,508)" d="m0 0" fill="#fff"/>
<path transform="translate(178,486)" d="m0 0" fill="#fff"/>
<path transform="translate(160,423)" d="m0 0"/>
<path transform="translate(162,422)" d="m0 0" fill="#fff"/>
<path transform="translate(950,414)" d="m0 0" fill="#fff"/>
<path transform="translate(723,377)" d="m0 0" fill="#fff"/>
<path transform="translate(971,333)" d="m0 0" fill="#fff"/>
<path transform="translate(945,289)" d="m0 0" fill="#fff"/>
<path transform="translate(595,212)" d="m0 0" fill="#fff"/>
<path transform="translate(596,211)" d="m0 0" fill="#fff"/>
<path transform="translate(607,194)" d="m0 0" fill="#fff"/>
<path transform="translate(604,185)" d="m0 0" fill="#fff"/>
<path transform="translate(604,174)" d="m0 0" fill="#fff"/>
<path transform="translate(541,173)" d="m0 0" fill="#fff"/>
<path transform="translate(556,167)" d="m0 0" fill="#fff"/>
<path transform="translate(597,161)" d="m0 0" fill="#fff"/>
<path transform="translate(522,160)" d="m0 0" fill="#fff"/>
<path transform="translate(596,159)" d="m0 0" fill="#fff"/>
<path transform="translate(523,159)" d="m0 0" fill="#fff"/>
<path transform="translate(595,158)" d="m0 0" fill="#fff"/>
<path transform="translate(596,157)" d="m0 0" fill="#fff"/>
</svg>
